<svg width="35" height="35" viewBox="0 0 35 35" fill="none" xmlns="http://www.w3.org/2000/svg">
<path d="M7.33337 28.0001V8.00008C7.33337 7.11603 7.68456 6.26818 8.30968 5.64306C8.93481 5.01794 9.78265 4.66675 10.6667 4.66675H27.3334C27.687 4.66675 28.0261 4.80722 28.2762 5.05727C28.5262 5.30732 28.6667 5.64646 28.6667 6.00008V30.0001C28.6667 30.3537 28.5262 30.6928 28.2762 30.9429C28.0261 31.1929 27.687 31.3334 27.3334 31.3334H10.6667C9.78265 31.3334 8.93481 30.9822 8.30968 30.3571C7.68456 29.732 7.33337 28.8841 7.33337 28.0001ZM7.33337 28.0001C7.33337 27.116 7.68456 26.2682 8.30968 25.6431C8.93481 25.0179 9.78265 24.6667 10.6667 24.6667H28.6667" stroke="white" stroke-width="4" stroke-linecap="round" stroke-linejoin="round"/>
<path d="M17.3475 11.8125C17.2725 12.1254 17.1608 12.439 16.9333 12.6666C16.7057 12.8941 16.3925 13.0058 16.0792 13.0808C15.571 13.2025 15.1251 13.5065 14.8262 13.9352C14.5273 14.3639 14.3961 14.8874 14.4576 15.4064C14.519 15.9254 14.7689 16.4038 15.1597 16.7507C15.5505 17.0977 16.0551 17.2892 16.5777 17.2888C19.3269 17.2888 21.5555 15.0602 21.5555 12.311C21.5559 11.7884 21.3644 11.2838 21.0175 10.893C20.6705 10.5022 20.1921 10.2523 19.6731 10.1908C19.1541 10.1294 18.6306 10.2605 18.202 10.5595C17.7733 10.8584 17.4692 11.3043 17.3475 11.8125Z" stroke="white" stroke-width="2" stroke-linecap="round" stroke-linejoin="round"/>
</svg>
