<svg width="35" height="35" viewBox="0 0 35 35" fill="none" xmlns="http://www.w3.org/2000/svg">
<path d="M15.7063 10.2474C15.4425 11.3474 15.05 12.4499 14.25 13.2499C13.45 14.0499 12.3488 14.4424 11.2475 14.7061C9.46072 15.1341 7.89315 16.203 6.84225 17.7101C5.79134 19.2172 5.33022 21.0576 5.54636 22.8822C5.7625 24.7068 6.64087 26.3885 8.01482 27.6084C9.38877 28.8282 11.1627 29.5013 13 29.4999C22.665 29.4999 30.5 21.6649 30.5 11.9999C30.5014 10.1626 29.8283 8.38865 28.6085 7.0147C27.3886 5.64075 25.7069 4.76238 23.8823 4.54624C22.0577 4.33009 20.2173 4.79122 18.7102 5.84213C17.2031 6.89303 16.1342 8.4606 15.7063 10.2474Z" stroke="white" stroke-width="4" stroke-linecap="round" stroke-linejoin="round"/>
</svg>
